<svg width="68" height="24" viewBox="0 0 68 24" fill="none" xmlns="http://www.w3.org/2000/svg">
<g clip-path="url(#clip0_468_15064)">
<path d="M61.9456 18.6888C61.7296 18.6888 61.5799 18.5431 61.5799 18.3328V7.8897H57.9354C57.7193 7.8897 57.5697 7.74403 57.5697 7.53379V6.09362C57.5697 5.88337 57.7193 5.7377 57.9354 5.7377H67.6347C67.8507 5.7377 68.0004 5.88337 68.0004 6.09362V7.53379C68.0004 7.74403 67.8507 7.8897 67.6347 7.8897H63.9917V18.3328C63.9917 18.5431 63.842 18.6888 63.626 18.6888H61.9456ZM34.0358 13.4747L32.1225 8.13148L30.1922 13.4747H34.0358ZM38.2775 18.2668C38.3608 18.477 38.2281 18.6888 37.9951 18.6888H36.2654C36.0155 18.6888 35.8658 18.5761 35.7825 18.3479L34.8011 15.5952H29.4284L28.4455 18.3479C28.3622 18.5746 28.2125 18.6888 27.9625 18.6888H26.3331C26.1171 18.6888 25.9674 18.4785 26.0507 18.2668L30.5594 6.05907C30.6427 5.83231 30.7924 5.7362 31.0408 5.7362H33.2705C33.5204 5.7362 33.6855 5.83231 33.7689 6.05907L38.2775 18.2668ZM51.1986 16.9392C52.2633 16.9392 52.9777 16.4376 53.5609 15.5801L50.8669 12.7629C49.8346 13.3305 49.1696 13.8967 49.1696 15.0305C49.1696 16.1478 50.1 16.9392 51.1986 16.9392ZM51.947 7.45119C51.0829 7.45119 50.583 7.98581 50.583 8.69764C50.583 9.24878 50.8823 9.73385 51.5643 10.4457C52.7447 9.7819 53.2446 9.37793 53.2446 8.6646C53.2446 8.00233 52.8126 7.45119 51.947 7.45119ZM59.3179 18.2352C59.5339 18.462 59.4012 18.6888 59.1343 18.6888H57.0219C56.7395 18.6888 56.5883 18.6242 56.4062 18.4124L55.1425 17.0534C54.2939 18.1541 53.1119 18.9801 51.1492 18.9801C48.7205 18.9801 46.8072 17.5549 46.8072 15.1101C46.8072 13.2314 47.8395 12.2282 49.4026 11.3858C48.6372 10.5268 48.2885 9.62122 48.2885 8.82829C48.2885 6.82046 49.7358 5.44336 51.9146 5.44336C54.1442 5.44336 55.5082 6.72285 55.5082 8.61655C55.5082 10.2354 54.3108 11.141 53.0456 11.8228L54.9095 13.7826L55.9572 12.0015C56.0899 11.7912 56.2396 11.7101 56.5065 11.7101H58.1205C58.3875 11.7101 58.5371 11.8889 58.3705 12.1637L56.5065 15.2723L59.3179 18.2352ZM42.7167 18.6888C42.9327 18.6888 43.0824 18.5431 43.0824 18.3328V7.8897H46.7254C46.9415 7.8897 47.0911 7.74403 47.0911 7.53379V6.09362C47.0911 5.88337 46.9415 5.7377 46.7254 5.7377H37.0261C36.8101 5.7377 36.6604 5.88337 36.6604 6.09362V7.53379C36.6604 7.74403 36.8101 7.8897 37.0261 7.8897H40.6692V18.3328C40.6692 18.5431 40.8188 18.6888 41.0349 18.6888H42.7167Z" fill="black"/>
<path d="M4.29726 20.7309C6.18127 22.1501 8.54515 23.0031 11.1096 23.0031C13.9163 23.0031 16.4746 21.9879 18.4281 20.3225C18.4512 20.3029 18.4404 20.2879 18.4173 20.3029C17.5409 20.8721 15.0427 22.117 11.1096 22.117C7.69187 22.117 5.53167 21.3752 4.31115 20.7114C4.288 20.6994 4.28029 20.7159 4.29726 20.7309ZM11.8641 21.2836C14.5983 21.2836 17.6026 20.5582 19.3986 19.1211C19.8908 18.7306 20.3584 18.2095 20.7781 17.5082C21.0203 17.1057 21.2549 16.6267 21.4477 16.1566C21.457 16.1341 21.4416 16.1221 21.4246 16.1476C19.7535 18.5414 14.9147 20.0356 9.91842 20.0356C6.38649 20.0356 2.58762 18.9363 1.10016 16.8369C1.08473 16.8174 1.07084 16.8264 1.0801 16.8489C2.46572 19.7158 6.6704 21.2836 11.8641 21.2836ZM8.87689 16.526C3.19093 16.526 0.509191 13.9475 0.0231453 12.1875C0.0169733 12.162 0 12.168 0 12.1905C0 12.7822 0.0617204 13.5481 0.166645 14.0542C0.216021 14.3005 0.422782 14.6894 0.725211 14.9973C2.10157 16.3939 5.53475 18.3522 11.4799 18.3522C19.5792 18.3522 21.4308 15.7256 21.8088 14.8621C22.0804 14.2449 22.2192 13.1276 22.2192 12.1905C22.2192 11.9637 22.2131 11.782 22.2038 11.6033C22.2038 11.5748 22.1868 11.5718 22.1807 11.6003C21.7764 13.7148 14.856 16.526 8.87689 16.526ZM1.07084 7.55161C0.745271 8.18084 0.384208 9.24257 0.276198 9.79221C0.229908 10.028 0.249966 10.1406 0.334831 10.3163C1.01684 11.725 4.46391 13.9776 12.5045 13.9776C17.4097 13.9776 21.2209 12.8047 21.8381 10.6632C21.9523 10.2698 21.9569 9.85228 21.8119 9.29213C21.6483 8.6659 21.3428 7.93455 21.0836 7.42246C21.0743 7.40594 21.0604 7.40744 21.0635 7.42846C21.1592 10.2367 13.1155 12.0478 9.05743 12.0478C4.66141 12.0478 0.993694 10.3419 0.993694 8.18835C0.993694 7.98111 1.0369 7.77537 1.09245 7.55912C1.09708 7.53809 1.0801 7.53509 1.07084 7.55161ZM18.4466 4.1036C18.4929 4.17418 18.516 4.25077 18.516 4.35289C18.516 5.55429 14.7403 7.67926 8.72877 7.67926C4.31269 7.67926 3.48564 6.0844 3.48564 5.06922C3.48564 4.7073 3.6276 4.33487 3.94237 3.95943C3.95935 3.93691 3.94546 3.92789 3.9254 3.94441C3.3514 4.41746 2.82524 4.95058 2.36234 5.52575C2.14169 5.79757 2.00436 6.03785 2.00436 6.18352C2.00436 8.28596 7.41876 9.81023 12.4829 9.81023C17.8772 9.81023 20.2859 8.09524 20.2859 6.58899C20.2859 6.04986 20.0698 5.736 19.5205 5.12629C19.1626 4.72983 18.8246 4.40695 18.4667 4.08858C18.4466 4.07507 18.4343 4.08708 18.4466 4.1036ZM16.7925 2.9022C15.1276 1.93057 13.1942 1.37793 11.1096 1.37793C9.01114 1.37793 7.01912 1.95009 5.34805 2.94725C4.84657 3.2476 4.5642 3.48788 4.5642 3.79724C4.5642 4.7103 6.75372 5.68944 10.6375 5.68944C14.4811 5.68944 17.4622 4.61569 17.4622 3.58099C17.4622 3.33621 17.2415 3.16351 16.7925 2.9022Z" fill="#009FDB"/>
</g>
<defs>
<clipPath id="clip0_468_15064">
<rect width="68" height="24" fill="white"/>
</clipPath>
</defs>
</svg>
