<svg width="98" height="26" viewBox="0 0 98 26" fill="none" xmlns="http://www.w3.org/2000/svg">
<path d="M45.5129 8.35059V3.76235H47.1662V2.72235H42.642V3.76235H44.2954V8.35059H45.5129ZM52.6825 8.35059V7.31058H49.7064V5.93411H52.3819V4.97059H49.7064V3.76235H52.6224V2.72235H48.4889V8.35059H52.6825ZM55.3279 8.35059V4.58823H55.3429L57.6426 8.35059H58.8601V2.72235H57.7178V6.5L55.4031 2.72235H54.2006V8.35059H55.3279ZM61.761 8.35059V4.58823H61.7761L64.0757 8.35059H65.2932V2.72235H64.1509V6.5H64.1359L61.8362 2.72235H60.6337V8.35059H61.761ZM71.2454 8.35059V7.31058H68.2693V5.93411H70.9448V4.97059H68.2693V3.76235H71.1853V2.72235H67.0518V8.35059H71.2454ZM74.7626 8.47294C75.1383 8.47294 75.469 8.42706 75.7546 8.33529C76.0402 8.24353 76.2807 8.12117 76.4761 7.96823C76.6715 7.81529 76.8067 7.61647 76.9119 7.40235C77.0172 7.17294 77.0623 6.92823 77.0623 6.68353C77.0623 6.36235 76.9871 6.10235 76.8669 5.90353C76.7466 5.7047 76.5813 5.55176 76.4009 5.41411C76.2356 5.29176 76.0552 5.21529 75.8598 5.15412C75.6794 5.09294 75.5291 5.06235 75.4239 5.04706C75.0782 4.95529 74.7926 4.87882 74.5822 4.83294C74.4169 4.78706 74.2365 4.72588 74.0711 4.6647C73.9509 4.60353 73.8758 4.54235 73.8307 4.48117C73.7856 4.41999 73.7705 4.32823 73.7705 4.22117C73.7705 4.09882 73.8006 4.00706 73.8457 3.91529C73.8908 3.83882 73.9659 3.76235 74.0411 3.71647C74.1162 3.67058 74.2064 3.6247 74.3116 3.60941C74.4169 3.59412 74.507 3.57882 74.6123 3.57882C74.7626 3.57882 74.8978 3.59412 75.0181 3.6247C75.1383 3.65529 75.2586 3.70117 75.3488 3.76235C75.4389 3.82353 75.5291 3.91529 75.5892 4.02235C75.6494 4.12941 75.6794 4.26706 75.6945 4.43529H76.8669C76.8669 4.11411 76.8067 3.83882 76.6865 3.60941C76.5662 3.38 76.4009 3.19647 76.1905 3.04353C75.98 2.89058 75.7396 2.78352 75.484 2.72235C75.2135 2.66117 74.9279 2.61529 74.6573 2.61529C74.4169 2.61529 74.1613 2.64588 73.9208 2.72235C73.6803 2.79882 73.4549 2.89058 73.2595 3.04353C73.0641 3.18117 72.8988 3.3647 72.7785 3.57882C72.6583 3.79294 72.5981 4.03764 72.5981 4.32823C72.5981 4.58823 72.6432 4.80235 72.7484 4.98588C72.8386 5.16941 72.9739 5.32235 73.1242 5.4447C73.2745 5.56706 73.4549 5.65882 73.6503 5.73529C73.8457 5.81176 74.0411 5.87294 74.2515 5.93411C74.4469 5.99529 74.6573 6.04117 74.8527 6.08705C75.0481 6.13294 75.2285 6.19411 75.3788 6.25529C75.5291 6.31647 75.6644 6.39294 75.7546 6.5C75.8448 6.59176 75.9049 6.71411 75.9049 6.86705C75.9049 7.0047 75.8748 7.12706 75.7997 7.21882C75.7245 7.31059 75.6343 7.38706 75.5291 7.43294C75.4239 7.49412 75.3037 7.5247 75.1834 7.54C75.0632 7.55529 74.958 7.57059 74.8377 7.57059C74.6724 7.57059 74.5221 7.55529 74.3718 7.50941C74.2365 7.47882 74.1012 7.41764 73.981 7.32588C73.8607 7.23411 73.7705 7.12705 73.7104 7.0047C73.6353 6.86705 73.6052 6.71412 73.6052 6.53059H72.4328C72.4328 6.88235 72.4929 7.17294 72.6132 7.43294C72.7484 7.67764 72.9138 7.89176 73.1392 8.06C73.3647 8.22823 73.6202 8.33529 73.8908 8.41176C74.1613 8.44235 74.4619 8.47294 74.7626 8.47294ZM80.4742 8.47294C80.85 8.47294 81.1807 8.42706 81.4662 8.33529C81.7518 8.24353 81.9923 8.12117 82.1877 7.96823C82.3831 7.81529 82.5334 7.61647 82.6236 7.40235C82.7288 7.17294 82.7739 6.92823 82.7739 6.68353C82.7739 6.36235 82.7138 6.10235 82.5785 5.90353C82.4583 5.7047 82.2929 5.55176 82.1126 5.41411C81.9472 5.29176 81.7669 5.21529 81.5715 5.15412C81.3911 5.09294 81.2408 5.06235 81.1356 5.04706C80.7899 4.95529 80.5043 4.87882 80.2938 4.83294C80.1135 4.78706 79.9481 4.72588 79.7828 4.6647C79.6626 4.60353 79.5874 4.54235 79.5423 4.48117C79.4972 4.41999 79.4822 4.32823 79.4822 4.22117C79.4822 4.09882 79.5123 4.00706 79.5573 3.91529C79.6175 3.83882 79.6776 3.76235 79.7527 3.71647C79.8279 3.67058 79.9181 3.6247 80.0233 3.60941C80.1285 3.59412 80.2187 3.57882 80.3089 3.57882C80.4592 3.57882 80.5945 3.59412 80.7297 3.6247C80.85 3.65529 80.9702 3.70117 81.0604 3.76235C81.1656 3.82353 81.2408 3.91529 81.3009 4.02235C81.361 4.12941 81.3911 4.26706 81.4061 4.43529H82.5785C82.5785 4.11411 82.5184 3.83882 82.3981 3.60941C82.2779 3.38 82.1126 3.19647 81.9021 3.04353C81.6917 2.89058 81.4512 2.78352 81.1957 2.72235C80.9251 2.66117 80.6396 2.61529 80.369 2.61529C80.1285 2.61529 79.873 2.64588 79.6325 2.72235C79.392 2.79882 79.1666 2.89058 78.9712 3.04353C78.7758 3.18117 78.6104 3.3647 78.4902 3.57882C78.3699 3.79294 78.3098 4.03764 78.3098 4.32823C78.3098 4.58823 78.3549 4.80235 78.4601 4.98588C78.5503 5.16941 78.6856 5.32235 78.8359 5.4447C78.9862 5.56706 79.1665 5.65882 79.3619 5.73529C79.5573 5.81176 79.7527 5.87294 79.9632 5.93411C80.1586 5.99529 80.369 6.04117 80.5644 6.08705C80.7598 6.13294 80.9402 6.19411 81.0905 6.25529C81.2408 6.31647 81.3761 6.39294 81.4662 6.5C81.5564 6.59176 81.6165 6.71411 81.6165 6.86705C81.6165 7.0047 81.5865 7.12706 81.5113 7.21882C81.4362 7.31059 81.346 7.38706 81.2408 7.43294C81.1356 7.49412 81.0153 7.5247 80.8951 7.54C80.7748 7.55529 80.6696 7.57059 80.5494 7.57059C80.384 7.57059 80.2337 7.55529 80.0834 7.50941C79.9481 7.47882 79.8129 7.41764 79.6926 7.32588C79.5724 7.23411 79.4822 7.12705 79.4221 7.0047C79.3469 6.86705 79.3169 6.71412 79.3169 6.53059H78.1445C78.1445 6.88235 78.2046 7.17294 78.3248 7.43294C78.4601 7.67764 78.6254 7.89176 78.8509 8.06C79.0764 8.22823 79.3168 8.33529 79.6024 8.41176C79.888 8.44235 80.1886 8.47294 80.4742 8.47294ZM88.3954 8.35059V7.31058H85.4193V5.93411H88.0797V4.97059H85.4043V3.76235H88.3202V2.72235H84.1868V8.35059H88.3954ZM94.092 8.35059V7.31058H91.1159V5.93411H93.7914V4.97059H91.1159V3.76235H94.0319V2.72235H89.8984V8.35059H94.092ZM45.6331 15.7376L47.4669 10.1094H46.2193L44.9718 14.0706H44.9567L43.7242 10.1094H42.4767L44.2653 15.7376H45.6331ZM48.9248 15.7376L49.3607 14.4835H51.4199L51.8408 15.7376H53.1034L51.0442 10.1094H49.7966L47.7073 15.7376H48.9248ZM51.1043 13.5659H49.6764L50.3978 11.5012H50.4129L51.1043 13.5659ZM58.1837 15.7376V14.6976H55.4932V10.1094H54.2758V15.7376H58.1837ZM63.4595 15.7376V14.6976H60.769V10.1094H59.5515V15.7376H63.4595ZM69.0359 15.7376V14.6976H66.0598V13.3212H68.7353V12.3576H66.0598V11.1494H68.9757V10.1094H64.8423V15.7376H69.0359ZM73.1994 15.7376V13.5812L75.2586 10.1094H73.9058L72.6132 12.3271L71.3205 10.1094H69.9527L71.9819 13.5506V15.7376H73.1994ZM43.7092 23.1247L44.1451 21.8706H46.2043L46.6251 23.1247H47.8877L45.8285 17.4965H44.581L42.4917 23.1247H43.7092ZM45.8886 20.9529H44.4607L45.1822 18.8882H45.1972L45.8886 20.9529ZM51.3899 23.2471C52.1264 23.2471 52.7126 23.0635 53.1184 22.6965C53.5392 22.3294 53.7497 21.7635 53.7497 20.9988V17.4965H52.5322V20.9988C52.5322 21.4118 52.442 21.7329 52.2767 21.9318C52.1113 22.1306 51.8107 22.2223 51.3748 22.2223C51.1343 22.2223 50.9239 22.1918 50.7886 22.1153C50.6534 22.0541 50.5331 21.9623 50.4429 21.84C50.3527 21.7176 50.3077 21.5953 50.2776 21.4576C50.2475 21.3047 50.2325 21.1518 50.2475 21.0141V17.5118H49.03V21.0141C49.03 21.7788 49.2405 22.3447 49.6463 22.7118C50.0672 23.0635 50.6383 23.2471 51.3899 23.2471ZM57.9282 23.1247V18.5365H59.5816V17.4965H55.0573V18.5365H56.7107V23.1247H57.9282ZM62.1218 23.1247V20.6929H64.3613V23.1247H65.5788V17.4965H64.3613V19.6529H62.1218V17.4965H60.9043V23.1247H62.1218ZM69.8175 23.2471C70.2534 23.2471 70.6291 23.1706 70.9598 23.0176C71.2905 22.88 71.5761 22.6659 71.8165 22.3906C72.057 22.1153 72.2374 21.8094 72.3577 21.4576C72.4779 21.0906 72.5531 20.7082 72.538 20.3106C72.538 19.8823 72.4779 19.5 72.3577 19.1329C72.2374 18.7812 72.057 18.4753 71.8165 18.1847C71.5761 17.9094 71.2905 17.6953 70.9598 17.5576C70.6291 17.4047 70.2383 17.3282 69.8175 17.3282C69.3966 17.3282 69.0208 17.4047 68.6751 17.5576C68.3445 17.7106 68.0589 17.9247 67.8184 18.1847C67.5779 18.46 67.3975 18.7812 67.2773 19.1329C67.157 19.5153 67.0819 19.8976 67.0969 20.3106C67.0969 20.6929 67.157 21.0906 67.2773 21.4576C67.3975 21.7941 67.5779 22.1153 67.8184 22.3906C68.0438 22.6506 68.3294 22.8647 68.6751 23.0176C69.0058 23.1706 69.3966 23.2471 69.8175 23.2471ZM69.8175 22.2223C69.5469 22.2223 69.3064 22.1612 69.1261 22.0541C68.9457 21.9471 68.7803 21.8094 68.6601 21.6259C68.5399 21.4423 68.4497 21.2435 68.4046 21.0294C68.3445 20.8 68.3144 20.5706 68.3144 20.3412C68.3144 20.0965 68.3445 19.8518 68.4046 19.6223C68.4647 19.3929 68.5399 19.1788 68.6601 19.0106C68.7803 18.8271 68.9307 18.6894 69.1261 18.5824C69.3215 18.4753 69.5469 18.4141 69.8175 18.4141C70.088 18.4141 70.3285 18.4753 70.5089 18.5824C70.7043 18.6894 70.8546 18.8271 70.9748 19.0106C71.0951 19.1941 71.1853 19.3929 71.2303 19.6223C71.2905 19.8518 71.3055 20.0965 71.3055 20.3412C71.3055 20.5706 71.2754 20.8 71.2303 21.0294C71.1702 21.2588 71.0951 21.4576 70.9748 21.6259C70.8546 21.8094 70.7043 21.9471 70.5089 22.0541C70.3285 22.1612 70.088 22.2223 69.8175 22.2223ZM75.2736 23.1247V20.9223H76.4911C76.7917 20.9223 77.0172 20.9988 77.1524 21.1212C77.2877 21.2588 77.3779 21.4729 77.423 21.7635C77.453 21.9929 77.4831 22.2223 77.4981 22.4671C77.5132 22.7118 77.5583 22.9259 77.6184 23.1094H78.8359C78.7757 23.0176 78.7307 22.9259 78.7006 22.8188C78.6705 22.6965 78.6555 22.5741 78.6405 22.4671C78.6254 22.3447 78.6104 22.2224 78.6104 22.1C78.6104 21.9776 78.5954 21.8706 78.5954 21.7788C78.5804 21.6412 78.5653 21.4882 78.5353 21.3506C78.5052 21.2129 78.4601 21.0906 78.4 20.9682C78.3399 20.8459 78.2497 20.7541 78.1595 20.6624C78.0543 20.5706 77.919 20.5094 77.7837 20.4635V20.4482C78.0994 20.3259 78.3248 20.1424 78.4601 19.8976C78.5954 19.6529 78.6705 19.3624 78.6705 19.0412C78.6705 18.8271 78.6405 18.6282 78.5653 18.4447C78.4902 18.2612 78.385 18.0929 78.2346 17.9553C78.0843 17.8023 77.919 17.6953 77.7236 17.6188C77.5132 17.5271 77.2877 17.4965 77.0472 17.4965H74.0711V23.1247H75.2736ZM76.5963 20.0506H75.2586V18.46H76.5963C76.8819 18.46 77.0923 18.5212 77.2276 18.6435C77.3629 18.7659 77.438 18.9647 77.438 19.24C77.438 19.5153 77.3629 19.7294 77.2276 19.8518C77.0923 19.9741 76.8819 20.0506 76.5963 20.0506ZM81.5564 23.1247V17.4965H80.3389V23.1247H81.5564ZM85.75 23.1247V18.5365H87.4034V17.4965H82.8791V18.5365H84.5325V23.1247H85.75ZM91.3715 23.1247V20.9682L93.4307 17.4965H92.0779L90.7853 19.7141L89.4926 17.4965H88.1248L90.154 20.9376V23.1247H91.3715ZM16.8193 1.85059L19.1791 18.3529L21.584 1.85059H23.2224L19.9757 24.18H15.8423L12.7911 3.54823H10.5215V24.18H6.38802V3.54823H3.90796V1.85059H16.8193ZM28.8889 1.85059L32.2257 24.18H28.0322L27.431 19.9741H23.8837L23.2675 24.18H21.6291L24.8758 1.85059H28.8889ZM25.6573 7.69294L24.1092 18.2918H27.1754L25.6573 7.69294Z" fill="#414141"/>
</svg>
